<svg width="30" height="32" fill="none" xmlns="http://www.w3.org/2000/svg"><path fill-rule="evenodd" clip-rule="evenodd" d="M1.163.38a1.038 1.038 0 0 0 0 2.077h4.154a1.73 1.73 0 0 1 1.731 1.73v18.044c0 .573.465 1.038 1.039 1.038h17.186a3.808 3.808 0 0 0 3.196-1.738l.46-.71c1.043-1.612-.114-3.74-2.035-3.74H12.197a1.038 1.038 0 0 0 0 2.078h14.697c.275 0 .44.304.29.534l-.458.71a1.73 1.73 0 0 1-1.453.79H9.125V4.187A3.808 3.808 0 0 0 5.317.38H1.163Zm8.914 24.966a3.115 3.115 0 1 0 0 6.231 3.115 3.115 0 0 0 0-6.23Zm15.23 0a3.115 3.115 0 1 0 0 6.231 3.115 3.115 0 0 0 0-6.23ZM9.039 28.462a1.038 1.038 0 1 1 2.077 0 1.038 1.038 0 0 1-2.077 0Zm15.231 0a1.038 1.038 0 1 1 2.077 0 1.038 1.038 0 0 1-2.077 0Z" fill="#894083"/></svg>